<svg t="1717250572837" class="icon" viewBox="0 0 1024 1024" version="1.1" xmlns="http://www.w3.org/2000/svg" p-id="3520" width="200" height="200"><path d="M883.63 251.79H771.42v-35.42C771.42 137.3 707.1 73 628 73H391.22c-79.06 0-143.39 64.32-143.39 143.39v35.42h-112.2a30 30 0 1 0 0 60h748a30 30 0 0 0 0-60z m-575.8 0v-35.42A83.49 83.49 0 0 1 391.22 133H628a83.48 83.48 0 0 1 83.38 83.39v35.42zM793.62 360a30 30 0 0 0-30 30v436.3a83.49 83.49 0 0 1-83.39 83.39H341.87a83.49 83.49 0 0 1-83.39-83.39V390a30 30 0 0 0-60 0v436.3c0 79.06 64.32 143.39 143.39 143.39h338.36c79.06 0 143.39-64.33 143.39-143.39V390a30 30 0 0 0-30-30z" p-id="3521"></path><path d="M436.74 760.84V390a30 30 0 0 0-60 0v370.84a30 30 0 0 0 60 0zM628.8 760.84V390a30 30 0 0 0-60 0v370.84a30 30 0 0 0 60 0z" p-id="3522"></path></svg>